<mxfile host="Electron" agent="Mozilla/5.0 (Windows NT 10.0; Win64; x64) AppleWebKit/537.36 (KHTML, like Gecko) draw.io/27.0.9 Chrome/134.0.6998.205 Electron/35.4.0 Safari/537.36" version="27.0.9">
  <diagram name="Page-1" id="X1rfeDu_BKp3BnXFkFzo">
    <mxGraphModel dx="1310" dy="883" grid="1" gridSize="10" guides="1" tooltips="1" connect="1" arrows="1" fold="1" page="1" pageScale="1" pageWidth="827" pageHeight="1169" math="0" shadow="0">
      <root>
        <mxCell id="0" />
        <mxCell id="1" parent="0" />
        <mxCell id="4baLN2oVCsU0pxq_7L06-14" value="&lt;font style=&quot;font-size: 14px;&quot;&gt;Gestionnaire de Tâches&amp;nbsp;&lt;/font&gt;" style="swimlane;whiteSpace=wrap;html=1;" vertex="1" parent="1">
          <mxGeometry x="240" y="50" width="550" height="880" as="geometry" />
        </mxCell>
        <mxCell id="4baLN2oVCsU0pxq_7L06-17" value="&lt;font style=&quot;font-size: 14px;&quot;&gt;Gérer&amp;nbsp;&lt;/font&gt;" style="ellipse;whiteSpace=wrap;html=1;" vertex="1" parent="4baLN2oVCsU0pxq_7L06-14">
          <mxGeometry x="170" y="120" width="140" height="70" as="geometry" />
        </mxCell>
        <mxCell id="4baLN2oVCsU0pxq_7L06-20" value="&lt;font style=&quot;font-size: 14px;&quot;&gt;Gérer projets&lt;/font&gt;" style="ellipse;whiteSpace=wrap;html=1;" vertex="1" parent="4baLN2oVCsU0pxq_7L06-14">
          <mxGeometry x="30" y="250" width="140" height="70" as="geometry" />
        </mxCell>
        <mxCell id="4baLN2oVCsU0pxq_7L06-21" value="&lt;font style=&quot;font-size: 14px;&quot;&gt;Gérer tâches&amp;nbsp;&lt;/font&gt;" style="ellipse;whiteSpace=wrap;html=1;" vertex="1" parent="4baLN2oVCsU0pxq_7L06-14">
          <mxGeometry x="310" y="250" width="140" height="70" as="geometry" />
        </mxCell>
        <mxCell id="4baLN2oVCsU0pxq_7L06-22" value="" style="endArrow=open;startArrow=none;endFill=0;startFill=0;endSize=8;html=1;verticalAlign=bottom;labelBackgroundColor=none;strokeWidth=1;rounded=0;exitX=0.624;exitY=0.095;exitDx=0;exitDy=0;exitPerimeter=0;entryX=0;entryY=1;entryDx=0;entryDy=0;" edge="1" parent="4baLN2oVCsU0pxq_7L06-14" source="4baLN2oVCsU0pxq_7L06-20" target="4baLN2oVCsU0pxq_7L06-17">
          <mxGeometry width="160" relative="1" as="geometry">
            <mxPoint x="200" y="410" as="sourcePoint" />
            <mxPoint x="360" y="410" as="targetPoint" />
          </mxGeometry>
        </mxCell>
        <mxCell id="4baLN2oVCsU0pxq_7L06-23" value="" style="endArrow=open;startArrow=none;endFill=0;startFill=0;endSize=8;html=1;verticalAlign=bottom;labelBackgroundColor=none;strokeWidth=1;rounded=0;entryX=1;entryY=1;entryDx=0;entryDy=0;" edge="1" parent="4baLN2oVCsU0pxq_7L06-14" target="4baLN2oVCsU0pxq_7L06-17">
          <mxGeometry width="160" relative="1" as="geometry">
            <mxPoint x="349" y="250" as="sourcePoint" />
            <mxPoint x="350" y="400" as="targetPoint" />
          </mxGeometry>
        </mxCell>
        <mxCell id="4baLN2oVCsU0pxq_7L06-25" value="&lt;font style=&quot;font-size: 14px;&quot;&gt;Créer projets&lt;/font&gt;" style="ellipse;whiteSpace=wrap;html=1;" vertex="1" parent="4baLN2oVCsU0pxq_7L06-14">
          <mxGeometry x="30" y="390" width="140" height="70" as="geometry" />
        </mxCell>
        <mxCell id="4baLN2oVCsU0pxq_7L06-26" value="&lt;font style=&quot;font-size: 14px;&quot;&gt;&amp;lt;&amp;lt;extend&amp;gt;&amp;gt;&lt;/font&gt;" style="html=1;verticalAlign=bottom;labelBackgroundColor=none;endArrow=open;endFill=0;dashed=1;rounded=0;exitX=0.5;exitY=0;exitDx=0;exitDy=0;entryX=0.5;entryY=1;entryDx=0;entryDy=0;" edge="1" parent="4baLN2oVCsU0pxq_7L06-14" source="4baLN2oVCsU0pxq_7L06-25" target="4baLN2oVCsU0pxq_7L06-20">
          <mxGeometry width="160" relative="1" as="geometry">
            <mxPoint x="200" y="410" as="sourcePoint" />
            <mxPoint x="360" y="410" as="targetPoint" />
          </mxGeometry>
        </mxCell>
        <mxCell id="4baLN2oVCsU0pxq_7L06-27" value="&lt;font style=&quot;font-size: 14px;&quot;&gt;Ajouter tâches&amp;nbsp;&lt;/font&gt;" style="ellipse;whiteSpace=wrap;html=1;" vertex="1" parent="4baLN2oVCsU0pxq_7L06-14">
          <mxGeometry x="230" y="390" width="140" height="70" as="geometry" />
        </mxCell>
        <mxCell id="4baLN2oVCsU0pxq_7L06-28" value="&lt;font style=&quot;font-size: 14px;&quot;&gt;Marquer tâches&amp;nbsp;&lt;/font&gt;&lt;div&gt;&lt;font size=&quot;3&quot;&gt;terminée&amp;nbsp;&lt;/font&gt;&lt;/div&gt;" style="ellipse;whiteSpace=wrap;html=1;" vertex="1" parent="4baLN2oVCsU0pxq_7L06-14">
          <mxGeometry x="390" y="390" width="140" height="70" as="geometry" />
        </mxCell>
        <mxCell id="4baLN2oVCsU0pxq_7L06-30" value="&lt;font style=&quot;font-size: 14px;&quot;&gt;&amp;lt;&amp;lt;extend&amp;gt;&amp;gt;&lt;/font&gt;" style="html=1;verticalAlign=bottom;labelBackgroundColor=none;endArrow=open;endFill=0;dashed=1;rounded=0;exitX=0.5;exitY=0;exitDx=0;exitDy=0;entryX=0.262;entryY=0.894;entryDx=0;entryDy=0;entryPerimeter=0;" edge="1" parent="4baLN2oVCsU0pxq_7L06-14" source="4baLN2oVCsU0pxq_7L06-27" target="4baLN2oVCsU0pxq_7L06-21">
          <mxGeometry width="160" relative="1" as="geometry">
            <mxPoint x="240" y="460" as="sourcePoint" />
            <mxPoint x="400" y="460" as="targetPoint" />
          </mxGeometry>
        </mxCell>
        <mxCell id="4baLN2oVCsU0pxq_7L06-31" value="&lt;font style=&quot;font-size: 14px;&quot;&gt;&amp;lt;&amp;lt;extend&amp;gt;&amp;gt;&lt;/font&gt;" style="html=1;verticalAlign=bottom;labelBackgroundColor=none;endArrow=open;endFill=0;dashed=1;rounded=0;exitX=0.5;exitY=0;exitDx=0;exitDy=0;entryX=0.635;entryY=0.989;entryDx=0;entryDy=0;entryPerimeter=0;" edge="1" parent="4baLN2oVCsU0pxq_7L06-14" source="4baLN2oVCsU0pxq_7L06-28" target="4baLN2oVCsU0pxq_7L06-21">
          <mxGeometry width="160" relative="1" as="geometry">
            <mxPoint x="240" y="460" as="sourcePoint" />
            <mxPoint x="410" y="330" as="targetPoint" />
          </mxGeometry>
        </mxCell>
        <mxCell id="4baLN2oVCsU0pxq_7L06-32" value="&lt;font style=&quot;font-size: 14px;&quot;&gt;Ajouter dates échéance&amp;nbsp;&lt;/font&gt;" style="ellipse;whiteSpace=wrap;html=1;" vertex="1" parent="4baLN2oVCsU0pxq_7L06-14">
          <mxGeometry x="230" y="540" width="140" height="70" as="geometry" />
        </mxCell>
        <mxCell id="4baLN2oVCsU0pxq_7L06-35" value="&lt;font style=&quot;font-size: 14px;&quot;&gt;&amp;lt;&amp;lt;include&amp;gt;&amp;gt;&lt;/font&gt;" style="html=1;verticalAlign=bottom;labelBackgroundColor=none;endArrow=open;endFill=0;dashed=1;rounded=0;exitX=0.5;exitY=1;exitDx=0;exitDy=0;entryX=0.5;entryY=0;entryDx=0;entryDy=0;" edge="1" parent="4baLN2oVCsU0pxq_7L06-14" source="4baLN2oVCsU0pxq_7L06-27" target="4baLN2oVCsU0pxq_7L06-32">
          <mxGeometry width="160" relative="1" as="geometry">
            <mxPoint x="350" y="420" as="sourcePoint" />
            <mxPoint x="510" y="420" as="targetPoint" />
          </mxGeometry>
        </mxCell>
        <mxCell id="4baLN2oVCsU0pxq_7L06-16" value="&lt;font style=&quot;font-size: 18px;&quot;&gt;Utilisateur&lt;/font&gt;" style="shape=umlActor;verticalLabelPosition=bottom;verticalAlign=top;html=1;" vertex="1" parent="1">
          <mxGeometry x="50" y="150" width="50" height="110" as="geometry" />
        </mxCell>
        <mxCell id="4baLN2oVCsU0pxq_7L06-19" value="" style="endArrow=none;startArrow=none;endFill=0;startFill=0;endSize=8;html=1;verticalAlign=bottom;labelBackgroundColor=none;strokeWidth=3;rounded=0;" edge="1" parent="1" source="4baLN2oVCsU0pxq_7L06-16" target="4baLN2oVCsU0pxq_7L06-17">
          <mxGeometry width="160" relative="1" as="geometry">
            <mxPoint x="440" y="460" as="sourcePoint" />
            <mxPoint x="600" y="460" as="targetPoint" />
          </mxGeometry>
        </mxCell>
      </root>
    </mxGraphModel>
  </diagram>
</mxfile>
